<?xml version="1.0" encoding="UTF-8"?>
<svg viewBox="0 0 196 191" version="1.1" xmlns="http://www.w3.org/2000/svg" xmlns:xlink="http://www.w3.org/1999/xlink">
    <!-- Generator: Sketch 48.2 (47327) - http://www.bohemiancoding.com/sketch -->
    <title>Logo</title>
    <desc>Created with Sketch.</desc>
    <defs></defs>
    <g id="Page-1" stroke="none" stroke-width="1" fill="none" fill-rule="evenodd">
        <g id="Logo" transform="translate(-5.000000, 0.000000)">
            <g id="noun_Anchor_65037-Copy" transform="translate(31.000000, 0.000000)" fill="#03233F" fill-rule="nonzero">
                <g id="Group">
                    <path d="M88.8821818,36.2365874 C82.2738182,36.3191241 76.0549091,36.2881729 73.3204848,29.0290703 C75.2059394,28.5668648 77.3798788,27.8735565 79.6094545,27.5661073 C80.6006061,27.4299217 82.0698182,27.7414978 82.6838788,28.4244889 C84.8866667,30.8840825 86.8174545,33.5892228 88.8821818,36.2365874 Z" id="Shape"></path>
                    <path d="M86.2569697,132.005982 C80.6150303,135.441572 74.9050909,138.227185 69.7618182,131.502508 C77.033697,126.686491 80.7448485,126.779345 86.2569697,132.005982 Z" id="Shape"></path>
                    <path d="M75.7561212,126.294442 C73.0814545,127.951366 71.0126061,129.137831 69.0467879,130.479053 C67.1654545,131.760435 65.3459394,131.79964 63.3389091,130.817453 C61.8058182,130.068433 59.9100606,129.181163 58.1812121,128.481665 C60.6312727,127.251868 61.9212121,125.718749 63.7757576,124.272293 C64.3774545,123.801834 65.3686061,123.364389 66.0341818,123.527399 C69.1704242,124.294991 72.2592727,125.275114 75.7561212,126.294442 Z" id="Shape"></path>
                    <path d="M90.9427879,64.1793865 C89.7311515,62.4935745 88.6266667,60.6715769 87.2357576,59.105443 C85.7088485,57.3866163 84.8186667,55.5584284 84.9196364,53.232957 C84.9938182,51.5161936 84.9340606,49.7932401 84.9340606,47.8639447 C85.5398788,48.2044086 86.0406061,48.4520187 86.5104242,48.7512143 C88.5483636,50.0408502 91.8061818,50.4019482 92.1029091,53.1318495 C92.4573333,56.3899857 91.7443636,59.7678 91.4373333,63.0899021 C91.392,63.5624247 91.0252121,64.0060595 90.9427879,64.1793865 Z" id="Shape"></path>
                    <path d="M47.7112727,88.9362691 C52.2961212,93.3911874 53.5448485,98.4837016 50.2231515,103.683514 C49.0012121,102.373244 46.8684848,101.292013 45.1437576,100.190148 C43.9218182,99.4101761 43.0831515,98.1700622 43.7116364,96.7669383 C44.9026667,94.0906859 46.365697,91.5341117 47.7112727,88.9362691 Z" id="Shape"></path>
                    <path d="M81.0065455,37.6520918 C82.4633939,37.7305016 84.0933333,37.8151018 85.7232727,37.910019 C88.0435152,38.0441411 89.692,39.0779132 90.382303,41.3992579 C91.1612121,44.0259883 91.9504242,46.6527187 92.6757576,49.0854879 C86.7061818,47.3088855 81.4001212,44.8554821 81.0065455,37.6520918 Z" id="Shape"></path>
                    <path d="M81.6432727,25.5769729 C78.7213333,26.2186957 76.5,26.8934332 74.2312727,27.1389799 C72.770303,27.297863 71.0806061,27.1761214 69.7803636,26.5632864 C67.5178182,25.5006264 66.6873939,23.3794333 67.4436364,21.8628215 C68.5913939,19.5641744 71.5030303,18.3838996 73.7387879,19.7540088 C76.4340606,21.4026794 78.8552727,23.4949847 81.6432727,25.5769729 Z" id="Shape"></path>
                    <path d="M95.0289697,139.32286 C89.4735758,141.757692 84.037697,142.657342 79.8443636,136.842632 C86.428,132.532153 90.9118788,133.26673 95.0289697,139.32286 Z" id="Shape"></path>
                    <path d="M83.5184242,74.6099617 C81.3012121,69.0573054 79.9082424,63.5376637 85.3235152,58.8330719 C85.4986667,59.1281406 85.7438788,59.6336779 86.0694545,60.0773126 C90.1206061,65.5721933 90.3658182,65.6217153 85.272,72.579559 C84.7073939,73.3492137 84.0212121,74.0301414 83.5184242,74.6099617 Z" id="Shape"></path>
                    <path d="M49.4524848,122.169671 C54.3464242,119.683253 59.5370909,118.16045 63.9838788,122.669018 C61.3813333,124.313561 59.7678788,125.99112 58.1544242,126.678238 C54.8286061,128.097869 52.1642424,126.616335 49.4524848,122.169671 Z" id="Shape"></path>
                    <path d="M42.6195152,112.160032 C51.6717576,111.939247 50.5549091,111.287207 56.2112727,118.595832 C52.9246061,118.862012 50.874303,121.480489 47.7813333,119.538813 C45.073697,117.838557 43.5467879,115.263412 42.6195152,112.160032 Z" id="Shape"></path>
                    <path d="M50.8660606,111.087055 C48.7024242,110.350415 46.5449697,111.12007 44.6533333,110.565011 C43.5694545,110.245181 42.5597576,108.906023 42.3310303,107.911456 C41.7478788,105.377579 41.7767273,102.406258 42.6174545,100.301572 C47.9894545,102.740532 51.5728485,104.430471 50.8660606,111.087055 Z" id="Shape"></path>
                    <path d="M56.157697,82.1785769 C56.157697,85.6740061 56.3266667,89.1818158 56.0608485,92.6566108 C55.974303,93.8224416 54.7853333,94.9036724 53.9178182,96.3191767 C52.8174545,93.0238991 49.0877576,90.8841352 50.5610909,87.4258475 C51.5048485,85.2076738 53.8889697,83.6043984 55.6281212,81.7246251 C55.8053333,81.877318 55.9804848,82.0279475 56.157697,82.1785769 Z" id="Shape"></path>
                    <path d="M80.0648485,68.2876507 C80.1452121,71.640704 82.2573333,75.0597867 79.4899394,78.3179229 C79.4899394,74.9648695 79.4899394,71.6118162 79.4899394,68.2587628 C79.6815758,68.2670165 79.8732121,68.2773336 80.0648485,68.2876507 Z" id="Shape"></path>
                    <path d="M89.0573333,142.514967 C91.8309091,142.254976 94.7013333,140.259651 97.7366061,143.119548 C94.4890909,144.021261 91.7340606,143.953169 89.0573333,142.514967 Z" id="Shape"></path>
                    <path d="M98.4413333,98.9087656 C102.346182,109.692185 101.414788,120.933683 101.231394,132.480568 C103.584606,130.212872 105.564848,128.000888 108.29103,126.64935 C109.58303,120.811942 106.986667,108.98237 106.986667,108.98237 C110.938909,115.638954 110.199152,125.877632 110.199152,125.877632 C110.114667,132.858173 108.148848,138.633678 102.725333,142.783211 C99.1398788,145.527556 95.0928485,146.491172 90.6522424,145.069477 C90.0855758,144.887897 89.4941818,144.731077 88.9048485,144.685682 C84.8516364,144.374106 81.4557576,142.605757 78.3916364,140.047119 C77.8290909,139.57666 77.2150303,139.013347 76.5412121,138.854464 C70.4212121,137.420389 65.5210909,132.800397 59.0713939,132.195816 C58.2615758,132.117406 57.5238788,131.327117 56.7346667,130.89999 C56.1824242,130.600794 55.5972121,130.359374 55.1191515,130.134462 C54.0620606,133.173876 53.3573333,136.120436 52.0426667,138.763674 C49.8027879,143.266051 46.0689697,145.909288 40.8721212,145.678186 C30.610303,145.218043 24.8344242,133.860994 25.9100606,126.083973 C25.8317576,124.633391 25.5041212,115.502769 29.1328485,109.390926 C29.1328485,109.390926 26.6395152,120.750039 27.7522424,126.698872 C30.3486061,128.023586 32.2505455,130.380009 34.6429091,132.408348 C34.2864242,120.803688 33.534303,109.630283 37.4020606,98.7973411 C26.4808485,99.1646294 2.86218182,116.660346 0.607878788,126.857755 C1.92460606,126.560623 3.22278788,126.207778 4.53951515,125.984929 C5.91806061,125.7497 7.31515152,125.638275 9.05018182,125.42987 C9.05018182,126.674111 9.01721212,127.62741 9.05430303,128.576582 C9.75078788,146.10944 17.7665455,158.568354 34.2349091,165.311603 C38.8712727,167.209947 43.3819394,169.436374 47.8740606,171.668992 C55.9083636,175.663768 62.4940606,181.28658 66.9326061,189.222484 C67.1757576,189.653738 67.4992727,190.043724 67.9134545,190.633862 C68.486303,189.78786 68.9746667,189.150264 69.3744242,188.461083 C73.1473939,181.922113 78.3833939,176.829599 85.0164848,173.336233 C90.7758788,170.305073 96.6589091,167.486445 102.622303,164.874158 C115.622667,159.177063 123.733212,149.668835 126.012242,135.499347 C126.531515,132.268036 126.708727,128.981012 127.083758,125.343207 C129.882061,125.823983 132.628848,126.296505 135.392121,126.771091 C131.812848,115.478008 107.942788,98.411482 98.4413333,98.9087656 Z" id="Shape"></path>
                    <path d="M75.3852121,1.89513079 C66.5246061,-1.92838174 55.9990303,1.64958412 51.2781818,10.0889615 C46.6727273,18.3199337 48.6509091,28.3192547 56.0938182,34.4207801 C57.6969697,35.7331136 58.6633939,39.496787 57.6722424,40.5573836 C56.9283636,41.3538627 53.4109091,40.9019743 52.0261818,39.833124 C51.9664242,39.7877288 51.9252121,39.709319 51.8592727,39.684558 C51.1772121,39.4266308 50.4972121,38.9747424 49.8089697,38.9623619 C45.8381818,38.8942691 41.8632727,38.8550642 37.8986667,38.9953765 C37.1094545,39.0242644 36.3490909,39.8764558 35.5722424,40.3427881 C34.5604848,40.9473695 33.5858182,41.9543172 32.5163636,42.0678051 C28.8732121,42.4536642 25.1950303,42.5836595 21.5271515,42.6888938 C19.3944242,42.7487329 18.3950303,43.5658462 18.4403636,45.8149712 C18.5310303,50.3895677 18.5104242,54.968291 18.4424242,59.5449509 C18.4135758,61.631066 19.2852121,62.5100818 21.3643636,62.6029356 C25.3289697,62.7762627 29.2935758,63.0465703 33.2437576,63.4344928 C34.0535758,63.5149661 34.7995152,64.2784306 35.574303,64.7282556 C36.4562424,65.2379197 37.321697,66.1437599 38.2283636,66.1850283 C41.8921212,66.3542285 45.5682424,66.267565 49.2402424,66.242804 C49.8233939,66.2386771 50.6270303,66.2758187 50.9505455,65.9353548 C51.6779394,65.1698269 52.438303,64.8169825 53.2172121,64.6787335 C53.2172121,64.6787335 54.7152727,59.0703649 54.7152727,53.4929476 C54.7152727,53.4929476 55.2201212,59.3860678 55.0326061,64.6539725 C56.1865455,64.7674605 57.3507879,65.017134 58.48,64.8169825 C58.5665455,65.4710858 58.6510303,65.7702814 58.6386667,66.0632867 C58.0740606,81.7824008 57.5630303,97.5056418 56.8603636,113.220629 C56.7552727,115.570862 57.6660606,116.734629 59.5638788,117.475396 C63.7221818,119.093115 67.9093333,120.628298 72.0676364,122.246017 C73.1082424,122.650447 74.0664242,123.263282 75.082303,123.735804 C76.7287273,124.499269 78.3895758,125.225592 80.3286061,126.092227 C77.6539394,105.579794 77.1861818,85.3830642 77.18,65.5515591 C78.3998788,64.7509532 79.5455758,64.42906 79.8052121,63.7584494 C81.1981818,60.1990543 83.4009697,56.782035 82.2408485,52.6345659 C82.0450909,51.9309405 82.0636364,51.1344614 82.1316364,50.3936945 C82.494303,46.4298696 81.0024242,43.2563336 78.1505455,40.6048422 C77.9238788,40.3943736 77.7981818,39.8950266 77.8661818,39.5834505 C78.2,38.0750924 77.2789091,37.3013108 76.3207273,36.3892803 C75.0802424,35.2069421 73.8686061,33.9276233 72.9372121,32.497675 C70.9755152,29.4912758 68.2884848,27.5661073 65.008,26.2517104 C62.0881212,25.0817527 60.4313939,22.1826512 60.6374545,19.0607006 C60.8290909,16.1781064 62.8402424,13.5555028 65.5478788,12.6558528 C68.4883636,11.6798563 72.0202424,12.4577647 73.5450909,15.1071927 C74.9277576,17.5110741 76.9698182,18.9162613 78.9912727,20.5401709 C80.4316364,21.6998115 81.6185455,23.185472 82.8713939,24.5658983 C83.6132121,25.3809482 84.2643636,26.2764714 85.1833939,27.4175412 C85.6593939,26.2723445 85.9272727,25.7441097 86.1044848,25.186987 C89.08,15.8582767 84.4518788,5.8094337 75.3852121,1.89513079 Z" id="Shape"></path>
                    <path d="M117.380364,45.7778297 C117.411273,43.6999683 116.556121,42.7631768 114.481091,42.6971475 C110.891515,42.5815961 107.308121,42.3195421 103.718545,42.1895468 C102.119515,42.1297077 100.831636,41.8036877 100.071273,40.1550172 C99.8198788,39.6102749 98.9606061,39.071723 98.3362424,39.0201376 C96.5002424,38.8715715 94.6436364,38.9664887 92.956,38.9664887 C94.7281212,48.1486964 95.9191515,57.0998013 92.5665455,66.4697799 C95.4658182,65.4710858 98.9606061,68.0379772 100.80897,63.9503472 C100.854303,63.8492397 100.959394,63.766703 101.095394,63.7006737 C101.517818,61.8559785 102.356485,57.6651776 102.356485,53.4908841 C102.356485,53.4908841 102.78303,58.4843544 102.706788,63.3870342 C106.558061,63.0878387 110.415515,62.8319749 114.27503,62.5884917 C116.758061,62.4316719 117.341212,61.8993102 117.353576,59.4974923 C117.374182,54.9228958 117.310303,50.3503628 117.380364,45.7778297 Z" id="Shape"></path>
                    <path d="M69.8586667,3.11254709 C77.101697,3.11254709 82.9764848,8.99535024 82.9764848,16.250326 C82.9764848,19.275296 81.9461818,22.0526559 80.229697,24.272893 C83.3309091,21.8710751 85.3379394,18.1177188 85.3379394,13.8856496 C85.3379394,6.62861042 79.4631515,0.747870691 72.2180606,0.747870691 C67.9938182,0.747870691 64.2455758,2.75557587 61.8470303,5.86308255 C64.0642424,4.14631923 66.8378182,3.11254709 69.8586667,3.11254709 Z" id="Shape"></path>
                </g>
            </g>
            <g id="Anchorific" transform="translate(100.633020, 88.075851) rotate(-10.000000) translate(-100.633020, -88.075851) translate(1.133020, 75.075851)" fill="#F5F0E6">
                <path d="M9.91,0.7657122 L15.67,0.7657122 L24.778,24.7777122 L17.218,24.7777122 L16.426,22.6177122 L9.154,22.6177122 L8.362,24.7777122 L0.802,24.7777122 L9.91,0.7657122 Z M14.41,17.3257122 L12.79,13.1137122 L11.17,17.3257122 L14.41,17.3257122 Z M6.166,21.8977122 L6.85,20.0977122 L18.73,20.0977122 L19.414,21.8977122 L20.422,21.8977122 L13.474,3.6457122 L12.106,3.6457122 L5.158,21.8977122 L6.166,21.8977122 Z M12.79,4.5097122 L18.406,19.2337122 L7.174,19.2337122 L12.79,4.5097122 Z M25.318,0.7657122 L31.618,0.7657122 L38.242,10.0177122 L38.242,0.7657122 L45.766,0.7657122 L45.766,24.7777122 L39.43,24.7777122 L32.842,15.5617122 L32.842,24.7777122 L25.318,24.7777122 L25.318,0.7657122 Z M29.602,21.8977122 L29.602,5.2657122 L41.482,21.8977122 L42.418,21.8977122 L42.418,3.6457122 L41.482,3.6457122 L41.482,20.2777122 L29.602,3.6457122 L28.666,3.6457122 L28.666,21.8977122 L29.602,21.8977122 Z M52.282,12.7897122 C52.282,11.6377064 52.479998,10.5577172 52.876,9.5497122 C53.272002,8.54170716 53.8299964,7.66571592 54.55,6.9217122 C55.2700036,6.17770848 56.1459948,5.58971436 57.178,5.1577122 C58.2100052,4.72571004 59.3619936,4.5097122 60.634,4.5097122 C61.2580031,4.5097122 61.8159975,4.55171178 62.308,4.6357122 C62.8000025,4.71971262 63.2139983,4.8217116 63.55,4.9417122 C63.958002,5.0617128 64.3059986,5.20571136 64.594,5.3737122 L65.098,4.5097122 C64.7139981,4.34171136 64.3060022,4.18571292 63.874,4.0417122 C63.465998,3.9217116 62.9980026,3.81371268 62.47,3.7177122 C61.9419974,3.62171172 61.3300035,3.5737122 60.634,3.5737122 C59.4099939,3.5737122 58.2400056,3.78971004 57.124,4.2217122 C56.0079944,4.65371436 55.0240043,5.27170818 54.172,6.0757122 C53.3199957,6.87971622 52.6360026,7.8517065 52.12,8.9917122 C51.6039974,10.1317179 51.346,11.3977052 51.346,12.7897122 C51.346,14.2057193 51.5919975,15.4777066 52.084,16.6057122 C52.5760025,17.7337178 53.2539957,18.6997082 54.118,19.5037122 C54.9820043,20.3077162 55.9899942,20.92571 57.142,21.3577122 C58.2940058,21.7897144 59.5179935,22.0057122 60.814,22.0057122 C61.5340036,22.0057122 62.1819971,21.9457128 62.758,21.8257122 C63.3340029,21.7057116 63.825998,21.5737129 64.234,21.4297122 C64.6900023,21.2617114 65.0979982,21.0697133 65.458,20.8537122 L64.954,19.9897122 C64.6419984,20.2057133 64.282002,20.3857115 63.874,20.5297122 C63.5139982,20.6737129 63.0820025,20.7997117 62.578,20.9077122 C62.0739975,21.0157127 61.4860034,21.0697122 60.814,21.0697122 C59.4939934,21.0697122 58.3060053,20.8537144 57.25,20.4217122 C56.1939947,19.98971 55.3000037,19.4017159 54.568,18.6577122 C53.8359963,17.9137085 53.272002,17.0377172 52.876,16.0297122 C52.479998,15.0217072 52.282,13.941718 52.282,12.7897122 Z M47.746,12.7897122 C47.746,10.8697026 48.0819966,9.13571994 48.754,7.5877122 C49.4260034,6.03970446 50.3379942,4.71371772 51.49,3.6097122 C52.6420058,2.50570668 53.9859923,1.65971514 55.522,1.0717122 C57.0580077,0.48370926 58.6899914,0.1897122 60.418,0.1897122 C61.7860068,0.1897122 63.0039947,0.32171088 64.072,0.5857122 C65.1400053,0.84971352 66.0579962,1.14971052 66.826,1.4857122 C67.7140044,1.86971412 68.4819968,2.28970992 69.13,2.7457122 L65.35,9.4057122 C64.9659981,9.11771076 64.5460023,8.84171352 64.09,8.5777122 C63.681998,8.38571124 63.1960028,8.1997131 62.632,8.0197122 C62.0679972,7.8397113 61.4260036,7.7497122 60.706,7.7497122 C59.9619963,7.7497122 59.2780031,7.88171088 58.654,8.1457122 C58.0299969,8.40971352 57.4840023,8.76970992 57.016,9.2257122 C56.5479977,9.68171448 56.1820013,10.2157091 55.918,10.8277122 C55.6539987,11.4397153 55.522,12.0937087 55.522,12.7897122 C55.522,13.4857157 55.6599986,14.1397091 55.936,14.7517122 C56.2120014,15.3637153 56.5899976,15.8977099 57.07,16.3537122 C57.5500024,16.8097145 58.1139968,17.1697109 58.762,17.4337122 C59.4100032,17.6977135 60.1179962,17.8297122 60.886,17.8297122 C61.6540038,17.8297122 62.337997,17.7337132 62.938,17.5417122 C63.538003,17.3497112 64.041998,17.1337134 64.45,16.8937122 C64.9300024,16.6297109 65.3499982,16.317714 65.71,15.9577122 L69.49,22.6177122 C68.8419968,23.1457148 68.0740044,23.6137102 67.186,24.0217122 C66.4179962,24.3577139 65.4940054,24.6697108 64.414,24.9577122 C63.3339946,25.2457136 62.098007,25.3897122 60.706,25.3897122 C58.8339906,25.3897122 57.1060079,25.0837153 55.522,24.4717122 C53.9379921,23.8597091 52.5700058,23.0017177 51.418,21.8977122 C50.2659942,20.7937067 49.3660032,19.4677199 48.718,17.9197122 C48.0699968,16.3717045 47.746,14.6617216 47.746,12.7897122 Z M70.39,0.7657122 L78.058,0.7657122 L78.058,8.9377122 L82.342,8.9377122 L82.342,0.7657122 L90.046,0.7657122 L90.046,24.7777122 L82.342,24.7777122 L82.342,15.8857122 L78.058,15.8857122 L78.058,24.7777122 L70.39,24.7777122 L70.39,0.7657122 Z M74.926,21.8977122 L74.926,12.7897122 L85.51,12.7897122 L85.51,21.8977122 L86.446,21.8977122 L86.446,3.6457122 L85.51,3.6457122 L85.51,11.9257122 L74.926,11.9257122 L74.926,3.6457122 L73.99,3.6457122 L73.99,21.8977122 L74.926,21.8977122 Z M92.026,12.7897122 C92.026,11.0617036 92.3559967,9.42971988 93.016,7.8937122 C93.6760033,6.35770452 94.5759943,5.0197179 95.716,3.8797122 C96.8560057,2.7397065 98.1939923,1.8397155 99.73,1.1797122 C101.266008,0.5197089 102.897991,0.1897122 104.626,0.1897122 C106.354009,0.1897122 107.985992,0.5197089 109.522,1.1797122 C111.058008,1.8397155 112.395994,2.7397065 113.536,3.8797122 C114.676006,5.0197179 115.575997,6.35770452 116.236,7.8937122 C116.896003,9.42971988 117.226,11.0617036 117.226,12.7897122 C117.226,14.5177208 116.896003,16.1497045 116.236,17.6857122 C115.575997,19.2217199 114.676006,20.5597065 113.536,21.6997122 C112.395994,22.8397179 111.058008,23.7397089 109.522,24.3997122 C107.985992,25.0597155 106.354009,25.3897122 104.626,25.3897122 C102.897991,25.3897122 101.266008,25.0597155 99.73,24.3997122 C98.1939923,23.7397089 96.8560057,22.8397179 95.716,21.6997122 C94.5759943,20.5597065 93.6760033,19.2217199 93.016,17.6857122 C92.3559967,16.1497045 92.026,14.5177208 92.026,12.7897122 Z M95.41,12.7897122 C95.41,14.0617186 95.6499976,15.2557066 96.13,16.3717122 C96.6100024,17.4877178 97.2699958,18.465708 98.11,19.3057122 C98.9500042,20.1457164 99.9279944,20.8057098 101.044,21.2857122 C102.160006,21.7657146 103.353994,22.0057122 104.626,22.0057122 C105.898006,22.0057122 107.091994,21.7657146 108.208,21.2857122 C109.324006,20.8057098 110.301996,20.1457164 111.142,19.3057122 C111.982004,18.465708 112.641998,17.4877178 113.122,16.3717122 C113.602002,15.2557066 113.842,14.0617186 113.842,12.7897122 C113.842,11.5177058 113.602002,10.3237178 113.122,9.2077122 C112.641998,8.09170662 111.982004,7.1137164 111.142,6.2737122 C110.301996,5.433708 109.324006,4.7737146 108.208,4.2937122 C107.091994,3.8137098 105.898006,3.5737122 104.626,3.5737122 C103.353994,3.5737122 102.160006,3.8137098 101.044,4.2937122 C99.9279944,4.7737146 98.9500042,5.433708 98.11,6.2737122 C97.2699958,7.1137164 96.6100024,8.09170662 96.13,9.2077122 C95.6499976,10.3237178 95.41,11.5177058 95.41,12.7897122 Z M99.586,12.7897122 C99.586,13.4857157 99.7179987,14.1397091 99.982,14.7517122 C100.246001,15.3637153 100.605998,15.8977099 101.062,16.3537122 C101.518002,16.8097145 102.051997,17.1697109 102.664,17.4337122 C103.276003,17.6977135 103.929997,17.8297122 104.626,17.8297122 C105.322003,17.8297122 105.975997,17.6977135 106.588,17.4337122 C107.200003,17.1697109 107.733998,16.8097145 108.19,16.3537122 C108.646002,15.8977099 109.005999,15.3637153 109.27,14.7517122 C109.534001,14.1397091 109.666,13.4857157 109.666,12.7897122 C109.666,12.0937087 109.534001,11.4397153 109.27,10.8277122 C109.005999,10.2157091 108.646002,9.68171448 108.19,9.2257122 C107.733998,8.76970992 107.200003,8.40971352 106.588,8.1457122 C105.975997,7.88171088 105.322003,7.7497122 104.626,7.7497122 C103.929997,7.7497122 103.276003,7.88171088 102.664,8.1457122 C102.051997,8.40971352 101.518002,8.76970992 101.062,9.2257122 C100.605998,9.68171448 100.246001,10.2157091 99.982,10.8277122 C99.7179987,11.4397153 99.586,12.0937087 99.586,12.7897122 Z M104.626,21.0697122 C103.473994,21.0697122 102.400005,20.8537144 101.404,20.4217122 C100.407995,19.98971 99.5320038,19.395716 98.776,18.6397122 C98.0199962,17.8837084 97.4260022,17.0077172 96.994,16.0117122 C96.5619978,15.0157072 96.346,13.941718 96.346,12.7897122 C96.346,11.6377064 96.5619978,10.5637172 96.994,9.5677122 C97.4260022,8.57170722 98.0199962,7.69571598 98.776,6.9397122 C99.5320038,6.18370842 100.407995,5.58971436 101.404,5.1577122 C102.400005,4.72571004 103.473994,4.5097122 104.626,4.5097122 C105.778006,4.5097122 106.851995,4.72571004 107.848,5.1577122 C108.844005,5.58971436 109.719996,6.18370842 110.476,6.9397122 C111.232004,7.69571598 111.825998,8.57170722 112.258,9.5677122 C112.690002,10.5637172 112.906,11.6377064 112.906,12.7897122 C112.906,13.941718 112.690002,15.0157072 112.258,16.0117122 C111.825998,17.0077172 111.232004,17.8837084 110.476,18.6397122 C109.719996,19.395716 108.844005,19.98971 107.848,20.4217122 C106.851995,20.8537144 105.778006,21.0697122 104.626,21.0697122 Z M126.694,16.4257122 C127.630005,16.4257122 128.541996,16.3297132 129.43,16.1377122 L132.85,21.8977122 L133.966,21.8977122 L130.366,15.8497122 C131.662006,15.3937099 132.693996,14.6917169 133.462,13.7437122 C134.230004,12.7957075 134.614,11.5657198 134.614,10.0537122 C134.614,8.99770692 134.410002,8.07371616 134.002,7.2817122 C133.593998,6.48970824 133.036004,5.8237149 132.328,5.2837122 C131.619996,4.7437095 130.786005,4.33571358 129.826,4.0597122 C128.865995,3.78371082 127.822006,3.6457122 126.694,3.6457122 L122.806,3.6457122 L122.806,21.8977122 L123.742,21.8977122 L123.742,16.4257122 L126.694,16.4257122 Z M123.742,15.5617122 L123.742,4.5097122 L126.694,4.5097122 C128.878011,4.5097122 130.587994,4.9897074 131.824,5.9497122 C133.060006,6.909717 133.678,8.27770332 133.678,10.0537122 C133.678,11.8297211 133.060006,13.1917075 131.824,14.1397122 C130.587994,15.0877169 128.878011,15.5617122 126.694,15.5617122 L123.742,15.5617122 Z M119.206,0.7657122 L127.486,0.7657122 C129.022008,0.7657122 130.443993,0.96971016 131.752,1.3777122 C133.060007,1.78571424 134.193995,2.38570824 135.154,3.1777122 C136.114005,3.96971616 136.863997,4.94770638 137.404,6.1117122 C137.944003,7.27571802 138.214,8.61370464 138.214,10.1257122 C138.214,11.3257182 138.046002,12.345708 137.71,13.1857122 C137.373998,14.0257164 137.002002,14.7217094 136.594,15.2737122 C136.113998,15.8977153 135.574003,16.42571 134.974,16.8577122 L139.474,24.7777122 L130.474,24.7777122 L126.874,18.6937122 L126.874,24.7777122 L119.206,24.7777122 L119.206,0.7657122 Z M126.874,12.5737122 L127.27,12.5737122 C128.182005,12.5737122 128.955997,12.3697142 129.592,11.9617122 C130.228003,11.5537102 130.546,10.869717 130.546,9.9097122 C130.546,8.9497074 130.228003,8.26571424 129.592,7.8577122 C128.955997,7.44971016 128.182005,7.2457122 127.27,7.2457122 L126.874,7.2457122 L126.874,12.5737122 Z M140.194,0.7657122 L148.33,0.7657122 L148.33,24.7777122 L140.194,24.7777122 L140.194,0.7657122 Z M144.73,21.8977122 L144.73,3.6457122 L143.794,3.6457122 L143.794,21.8977122 L144.73,21.8977122 Z M150.85,0.7657122 L164.998,0.7657122 L164.998,7.0657122 L158.518,7.0657122 L158.518,9.7297122 L164.89,9.7297122 L164.89,15.7057122 L158.518,15.7057122 L158.518,24.7777122 L150.85,24.7777122 L150.85,0.7657122 Z M155.386,21.8977122 L155.386,13.1497122 L162.226,13.1497122 L162.226,12.2857122 L155.386,12.2857122 L155.386,4.5097122 L162.586,4.5097122 L162.586,3.6457122 L154.45,3.6457122 L154.45,21.8977122 L155.386,21.8977122 Z M166.978,0.7657122 L175.114,0.7657122 L175.114,24.7777122 L166.978,24.7777122 L166.978,0.7657122 Z M171.514,21.8977122 L171.514,3.6457122 L170.578,3.6457122 L170.578,21.8977122 L171.514,21.8977122 Z M181.63,12.7897122 C181.63,11.6377064 181.827998,10.5577172 182.224,9.5497122 C182.620002,8.54170716 183.177996,7.66571592 183.898,6.9217122 C184.618004,6.17770848 185.493995,5.58971436 186.526,5.1577122 C187.558005,4.72571004 188.709994,4.5097122 189.982,4.5097122 C190.606003,4.5097122 191.163998,4.55171178 191.656,4.6357122 C192.148002,4.71971262 192.561998,4.8217116 192.898,4.9417122 C193.306002,5.0617128 193.653999,5.20571136 193.942,5.3737122 L194.446,4.5097122 C194.061998,4.34171136 193.654002,4.18571292 193.222,4.0417122 C192.813998,3.9217116 192.346003,3.81371268 191.818,3.7177122 C191.289997,3.62171172 190.678003,3.5737122 189.982,3.5737122 C188.757994,3.5737122 187.588006,3.78971004 186.472,4.2217122 C185.355994,4.65371436 184.372004,5.27170818 183.52,6.0757122 C182.667996,6.87971622 181.984003,7.8517065 181.468,8.9917122 C180.951997,10.1317179 180.694,11.3977052 180.694,12.7897122 C180.694,14.2057193 180.939998,15.4777066 181.432,16.6057122 C181.924002,17.7337178 182.601996,18.6997082 183.466,19.5037122 C184.330004,20.3077162 185.337994,20.92571 186.49,21.3577122 C187.642006,21.7897144 188.865994,22.0057122 190.162,22.0057122 C190.882004,22.0057122 191.529997,21.9457128 192.106,21.8257122 C192.682003,21.7057116 193.173998,21.5737129 193.582,21.4297122 C194.038002,21.2617114 194.445998,21.0697133 194.806,20.8537122 L194.302,19.9897122 C193.989998,20.2057133 193.630002,20.3857115 193.222,20.5297122 C192.861998,20.6737129 192.430003,20.7997117 191.926,20.9077122 C191.421997,21.0157127 190.834003,21.0697122 190.162,21.0697122 C188.841993,21.0697122 187.654005,20.8537144 186.598,20.4217122 C185.541995,19.98971 184.648004,19.4017159 183.916,18.6577122 C183.183996,17.9137085 182.620002,17.0377172 182.224,16.0297122 C181.827998,15.0217072 181.63,13.941718 181.63,12.7897122 Z M177.094,12.7897122 C177.094,10.8697026 177.429997,9.13571994 178.102,7.5877122 C178.774003,6.03970446 179.685994,4.71371772 180.838,3.6097122 C181.990006,2.50570668 183.333992,1.65971514 184.87,1.0717122 C186.406008,0.48370926 188.037991,0.1897122 189.766,0.1897122 C191.134007,0.1897122 192.351995,0.32171088 193.42,0.5857122 C194.488005,0.84971352 195.405996,1.14971052 196.174,1.4857122 C197.062004,1.86971412 197.829997,2.28970992 198.478,2.7457122 L194.698,9.4057122 C194.313998,9.11771076 193.894002,8.84171352 193.438,8.5777122 C193.029998,8.38571124 192.544003,8.1997131 191.98,8.0197122 C191.415997,7.8397113 190.774004,7.7497122 190.054,7.7497122 C189.309996,7.7497122 188.626003,7.88171088 188.002,8.1457122 C187.377997,8.40971352 186.832002,8.76970992 186.364,9.2257122 C185.895998,9.68171448 185.530001,10.2157091 185.266,10.8277122 C185.001999,11.4397153 184.87,12.0937087 184.87,12.7897122 C184.87,13.4857157 185.007999,14.1397091 185.284,14.7517122 C185.560001,15.3637153 185.937998,15.8977099 186.418,16.3537122 C186.898002,16.8097145 187.461997,17.1697109 188.11,17.4337122 C188.758003,17.6977135 189.465996,17.8297122 190.234,17.8297122 C191.002004,17.8297122 191.685997,17.7337132 192.286,17.5417122 C192.886003,17.3497112 193.389998,17.1337134 193.798,16.8937122 C194.278002,16.6297109 194.697998,16.317714 195.058,15.9577122 L198.838,22.6177122 C198.189997,23.1457148 197.422004,23.6137102 196.534,24.0217122 C195.765996,24.3577139 194.842005,24.6697108 193.762,24.9577122 C192.681995,25.2457136 191.446007,25.3897122 190.054,25.3897122 C188.181991,25.3897122 186.454008,25.0837153 184.87,24.4717122 C183.285992,23.8597091 181.918006,23.0017177 180.766,21.8977122 C179.613994,20.7937067 178.714003,19.4677199 178.066,17.9197122 C177.417997,16.3717045 177.094,14.6617216 177.094,12.7897122 Z"></path>
            </g>
            <g id="A-JQUERY-PLUGIN" transform="translate(91.807176, 62.996990) rotate(-10.000000) translate(-91.807176, -62.996990) translate(37.307176, 57.996990)" fill="#F5F0E6">
                <path d="M5.708388,5.6629777 L4.740388,2.9019777 L3.772388,5.6629777 L5.708388,5.6629777 Z M6.280388,7.3019777 L3.200388,7.3019777 L2.705388,8.7429777 L0.406388,8.7429777 L3.563388,0.4489777 L5.917388,0.4489777 L9.074388,8.7429777 L6.775388,8.7429777 L6.280388,7.3019777 Z M17.841388,0.4489777 L17.841388,6.2019777 C17.841388,6.44397891 17.8285548,6.66764334 17.802888,6.8729777 C17.7772212,7.07831206 17.735055,7.2543103 17.676388,7.4009777 C17.5810542,7.63564554 17.4508888,7.8501434 17.285888,8.0444777 C17.1208872,8.23881201 16.9283891,8.40381036 16.708388,8.5394777 C16.4883869,8.67514505 16.244556,8.78147732 15.976888,8.8584777 C15.70922,8.93547809 15.4287228,8.9739777 15.135388,8.9739777 C14.2480502,8.9739777 13.5257241,8.56698177 12.968388,7.7529777 L14.376388,6.3119777 C14.4130548,6.56131228 14.4937207,6.7593103 14.618388,6.9059777 C14.7430553,7.0526451 14.8970537,7.1259777 15.080388,7.1259777 C15.4837233,7.1259777 15.685388,6.80698089 15.685388,6.1689777 L15.685388,0.4489777 L17.841388,0.4489777 Z M19.216388,4.5959777 C19.216388,3.97997462 19.3300535,3.40614703 19.557388,2.8744777 C19.7847225,2.34280838 20.1000527,1.87897968 20.503388,1.4829777 C20.9067234,1.08697572 21.3888852,0.777145485 21.949888,0.5534777 C22.5108908,0.329809915 23.128718,0.2179777 23.803388,0.2179777 C24.4707247,0.2179777 25.0867185,0.329809915 25.651388,0.5534777 C26.2160575,0.777145485 26.701886,1.08697572 27.108888,1.4829777 C27.51589,1.87897968 27.8330535,2.34280838 28.060388,2.8744777 C28.2877225,3.40614703 28.401388,3.97997462 28.401388,4.5959777 C28.401388,5.16798056 28.3078889,5.69964191 28.120888,6.1909777 C27.9338871,6.68231349 27.6643898,7.11864246 27.312388,7.4999777 L28.720388,8.9739777 L26.740388,9.2819777 L25.981388,8.5009777 C25.6587197,8.6476451 25.3158898,8.76314395 24.952888,8.8474777 C24.5898862,8.93181146 24.2067234,8.9739777 23.803388,8.9739777 C23.128718,8.9739777 22.5108908,8.86214549 21.949888,8.6384777 C21.3888852,8.41480992 20.9067234,8.10497968 20.503388,7.7089777 C20.1000527,7.31297572 19.7847225,6.84914703 19.557388,6.3174777 C19.3300535,5.78580838 19.216388,5.21198078 19.216388,4.5959777 Z M21.471388,4.5959777 C21.471388,4.92597935 21.5337207,5.23030964 21.658388,5.5089777 C21.7830553,5.78764576 21.9517203,6.02964334 22.164388,6.2349777 C22.3770557,6.44031206 22.6245533,6.59981047 22.906888,6.7134777 C23.1892227,6.82714494 23.4880531,6.8839777 23.803388,6.8839777 C23.9940556,6.8839777 24.1847204,6.86197792 24.375388,6.8179777 L23.143388,5.5199777 L25.178388,5.2669777 L25.750388,5.8719777 C26.0143893,5.5053092 26.146388,5.07998012 26.146388,4.5959777 C26.146388,4.26597605 26.0840553,3.96164576 25.959388,3.6829777 C25.8347207,3.40430964 25.6642224,3.16231206 25.447888,2.9569777 C25.2315536,2.75164334 24.9822227,2.59214494 24.699888,2.4784777 C24.4175533,2.36481047 24.1187229,2.3079777 23.803388,2.3079777 C23.4880531,2.3079777 23.1892227,2.36481047 22.906888,2.4784777 C22.6245533,2.59214494 22.3770557,2.75164334 22.164388,2.9569777 C21.9517203,3.16231206 21.7830553,3.40430964 21.658388,3.6829777 C21.5337207,3.96164576 21.471388,4.26597605 21.471388,4.5959777 Z M31.921388,0.4489777 L31.921388,4.9589777 C31.921388,5.20097891 31.9305546,5.44847644 31.948888,5.7014777 C31.9672214,5.95447897 32.0222209,6.18364334 32.113888,6.3889777 C32.2055551,6.59431206 32.350387,6.76114373 32.548388,6.8894777 C32.746389,7.01781168 33.0250529,7.0819777 33.384388,7.0819777 C33.7437231,7.0819777 34.0205537,7.01781168 34.214888,6.8894777 C34.4092223,6.76114373 34.5540542,6.59431206 34.649388,6.3889777 C34.7447218,6.18364334 34.8015546,5.95447897 34.819888,5.7014777 C34.8382214,5.44847644 34.847388,5.20097891 34.847388,4.9589777 L34.847388,0.4489777 L36.992388,0.4489777 L36.992388,5.2559777 C36.992388,6.54665082 36.6972243,7.48897473 36.106888,8.0829777 C35.5165517,8.67698067 34.6090608,8.9739777 33.384388,8.9739777 C32.1597152,8.9739777 31.250391,8.67698067 30.656388,8.0829777 C30.062385,7.48897473 29.765388,6.54665082 29.765388,5.2559777 L29.765388,0.4489777 L31.921388,0.4489777 Z M43.449388,2.2749777 L40.886388,2.2749777 L40.886388,3.6609777 L43.306388,3.6609777 L43.306388,5.4869777 L40.886388,5.4869777 L40.886388,6.9169777 L43.449388,6.9169777 L43.449388,8.7429777 L38.730388,8.7429777 L38.730388,0.4489777 L43.449388,0.4489777 L43.449388,2.2749777 Z M47.156388,4.1559777 L47.563388,4.1559777 C47.9887235,4.1559777 48.3150535,4.06797858 48.542388,3.8919777 C48.7697225,3.71597682 48.883388,3.46297935 48.883388,3.1329777 C48.883388,2.80297605 48.7697225,2.54997858 48.542388,2.3739777 C48.3150535,2.19797682 47.9887235,2.1099777 47.563388,2.1099777 L47.156388,2.1099777 L47.156388,4.1559777 Z M51.897388,8.7429777 L49.213388,8.7429777 L47.156388,5.5529777 L47.156388,8.7429777 L45.000388,8.7429777 L45.000388,0.4489777 L48.355388,0.4489777 C48.8173903,0.4489777 49.2207196,0.516810355 49.565388,0.6524777 C49.9100564,0.788145045 50.1942202,0.97330986 50.417888,1.2079777 C50.6415558,1.44264554 50.8102208,1.71397616 50.923888,2.0219777 C51.0375552,2.32997924 51.094388,2.65997594 51.094388,3.0119777 C51.094388,3.64264752 50.9422229,4.15414241 50.637888,4.5464777 C50.3335531,4.938813 49.884391,5.20464367 49.290388,5.3439777 L51.897388,8.7429777 Z M54.405388,4.7609777 L51.380388,0.4489777 L53.954388,0.4489777 L55.494388,2.7149777 L57.023388,0.4489777 L59.597388,0.4489777 L56.561388,4.7609777 L56.561388,8.7429777 L54.405388,8.7429777 L54.405388,4.7609777 Z M66.252388,4.2549777 L66.967388,4.2549777 C67.759392,4.2549777 68.155388,3.91031448 68.155388,3.2209777 C68.155388,2.53164092 67.759392,2.1869777 66.967388,2.1869777 L66.252388,2.1869777 L66.252388,4.2549777 Z M66.252388,8.7429777 L64.096388,8.7429777 L64.096388,0.4489777 L67.528388,0.4489777 C68.459726,0.4489777 69.1728855,0.69097528 69.667888,1.1749777 C70.1628905,1.65898012 70.410388,2.3409733 70.410388,3.2209777 C70.410388,4.1009821 70.1628905,4.78297528 69.667888,5.2669777 C69.1728855,5.75098012 68.459726,5.9929777 67.528388,5.9929777 L66.252388,5.9929777 L66.252388,8.7429777 Z M73.710388,0.4489777 L73.710388,6.9169777 L76.295388,6.9169777 L76.295388,8.7429777 L71.554388,8.7429777 L71.554388,0.4489777 L73.710388,0.4489777 Z M79.408388,0.4489777 L79.408388,4.9589777 C79.408388,5.20097891 79.4175546,5.44847644 79.435888,5.7014777 C79.4542214,5.95447897 79.5092209,6.18364334 79.600888,6.3889777 C79.6925551,6.59431206 79.837387,6.76114373 80.035388,6.8894777 C80.233389,7.01781168 80.5120529,7.0819777 80.871388,7.0819777 C81.2307231,7.0819777 81.5075537,7.01781168 81.701888,6.8894777 C81.8962223,6.76114373 82.0410542,6.59431206 82.136388,6.3889777 C82.2317218,6.18364334 82.2885546,5.95447897 82.306888,5.7014777 C82.3252214,5.44847644 82.334388,5.20097891 82.334388,4.9589777 L82.334388,0.4489777 L84.479388,0.4489777 L84.479388,5.2559777 C84.479388,6.54665082 84.1842243,7.48897473 83.593888,8.0829777 C83.0035517,8.67698067 82.0960608,8.9739777 80.871388,8.9739777 C79.6467152,8.9739777 78.737391,8.67698067 78.143388,8.0829777 C77.549385,7.48897473 77.252388,6.54665082 77.252388,5.2559777 L77.252388,0.4489777 L79.408388,0.4489777 Z M90.254388,4.1009777 L94.533388,4.1009777 C94.533388,4.5409799 94.5150548,4.94064257 94.478388,5.2999777 C94.4417211,5.65931283 94.3683885,5.99297616 94.258388,6.3009777 C94.1043872,6.73364653 93.8953893,7.11680937 93.631388,7.4504777 C93.3673867,7.78414604 93.0575564,8.06280992 92.701888,8.2864777 C92.3462196,8.51014549 91.9557235,8.68064378 91.530388,8.7979777 C91.1050525,8.91531162 90.6577237,8.9739777 90.188388,8.9739777 C89.5430514,8.9739777 88.9545573,8.86764543 88.422888,8.6549777 C87.8912187,8.44230997 87.4347232,8.14347963 87.053388,7.7584777 C86.6720528,7.37347578 86.3750557,6.9114804 86.162388,6.3724777 C85.9497203,5.83347501 85.843388,5.23764763 85.843388,4.5849777 C85.843388,3.93964114 85.947887,3.3474804 86.156888,2.8084777 C86.365889,2.26947501 86.6628861,1.80931294 87.047888,1.4279777 C87.4328899,1.04664246 87.8967186,0.74964543 88.439388,0.5369777 C88.9820574,0.32430997 89.5870513,0.2179777 90.254388,0.2179777 C91.1197257,0.2179777 91.8787181,0.40497583 92.531388,0.7789777 C93.1840579,1.15297957 93.7010528,1.73230711 94.082388,2.5169777 L92.036388,3.3639777 C91.8457204,2.90930876 91.5982229,2.58297869 91.293888,2.3849777 C90.9895531,2.18697671 90.6430566,2.0879777 90.254388,2.0879777 C89.9317197,2.0879777 89.6383893,2.1484771 89.374388,2.2694777 C89.1103867,2.39047831 88.8848889,2.56280992 88.697888,2.7864777 C88.5108871,3.01014549 88.3642219,3.27964279 88.257888,3.5949777 C88.1515541,3.91031261 88.098388,4.26230909 88.098388,4.6509777 C88.098388,5.00297946 88.1442209,5.32930953 88.235888,5.6299777 C88.3275551,5.93064587 88.4650537,6.1909766 88.648388,6.4109777 C88.8317222,6.6309788 89.0590533,6.8014771 89.330388,6.9224777 C89.6017227,7.04347831 89.9170529,7.1039777 90.276388,7.1039777 C90.4890557,7.1039777 90.694387,7.08014461 90.892388,7.0324777 C91.090389,6.9848108 91.2682205,6.90781157 91.425888,6.8014777 C91.5835555,6.69514384 91.7137208,6.55764521 91.816388,6.3889777 C91.9190552,6.22031019 91.9887212,6.01497891 92.025388,5.7729777 L90.254388,5.7729777 L90.254388,4.1009777 Z M98.053388,0.4489777 L98.053388,8.7429777 L95.897388,8.7429777 L95.897388,0.4489777 L98.053388,0.4489777 Z M99.791388,8.7429777 L99.791388,0.4489777 L101.947388,0.4489777 L105.929388,5.5199777 L105.929388,0.4489777 L108.074388,0.4489777 L108.074388,8.7429777 L105.929388,8.7429777 L101.947388,3.6719777 L101.947388,8.7429777 L99.791388,8.7429777 Z"></path>
            </g>
            <g id="JS" transform="translate(103.447469, 135.329619) rotate(-10.000000) translate(-103.447469, -135.329619) translate(70.947469, 107.829619)" fill="#F5F0E6">
                <path d="M24.5375977,31.0898438 L17.0043946,35.3378906 C15.3429279,38.1510557 13.6767662,40.8084185 12.0058594,43.3100586 C10.3349526,45.8116987 8.85287107,47.8790608 7.55957033,49.512207 C6.26626959,51.1453532 5.14762844,52.3914345 4.2036133,53.2504883 C3.25959816,54.1095421 2.56103744,54.5390625 2.10791018,54.5390625 C1.50374049,54.5390625 1.01285998,54.3361023 0.635253925,53.9301758 C0.25764787,53.5242493 0.068847675,53.0475288 0.068847675,52.5 C0.068847675,50.4609273 1.21580886,47.9074047 3.50976564,44.8393555 C5.80372243,41.7713063 9.43340618,38.5097829 14.3989258,35.0546875 C16.5512803,30.9199012 18.3260021,27.1627773 19.7231446,23.7832031 C21.120287,20.4036289 22.1870081,17.5149859 22.9233399,15.1171875 C23.6596717,12.7193891 24.1741522,10.7936271 24.4667969,9.33984375 C24.7594416,7.88606044 24.9057617,6.96093948 24.9057617,6.56445313 C24.9057617,5.75260011 24.5942414,5.34667969 23.9711914,5.34667969 C23.4614233,5.34667969 22.7109425,5.63931999 21.7197266,6.22460938 C20.7285107,6.80989876 19.6570696,7.68309966 18.5053711,8.84423828 C17.3536726,10.0053769 16.2775115,11.3505783 15.2768555,12.8798828 C14.2761994,14.390307 13.3652385,16.0847888 12.5439453,17.9633789 C11.7226522,19.841969 11.0901715,21.5742108 10.6464844,23.1601563 C10.2027973,24.7461017 9.98095705,26.020503 9.98095705,26.9833984 C9.98095705,27.2288424 10.0187171,27.7669229 10.0942383,28.5976563 C10.264161,28.333332 10.4718412,28.0123717 10.7172852,27.6347656 C10.9627291,27.2571596 11.2742494,26.8701192 11.6518555,26.4736328 C12.0294615,26.0771465 12.425942,25.7467461 12.8413086,25.4824219 C13.0867525,25.2936188 13.3793929,25.1378587 13.7192383,25.0151367 C14.0590837,24.8924148 14.2290039,24.9065748 14.2290039,25.0576172 C14.2290039,25.170899 13.6909234,25.8836197 12.6147461,27.1958008 C11.5385689,28.5079818 10.6040079,29.692703 9.81103518,30.75 C9.35790791,31.3541697 8.75374728,31.9205703 7.99853518,32.4492188 C7.24332307,32.9778672 6.62972243,33.2421875 6.15771486,33.2421875 C5.59130578,33.2421875 5.21842539,32.9778672 5.03906252,32.4492188 C4.85969964,31.9205703 4.77001955,31.0804094 4.77001955,29.9287109 C4.77001955,27.1533064 5.24674004,24.0664232 6.20019533,20.6679688 C7.15365062,17.2695143 8.43277194,14.2864712 10.0375977,11.71875 C11.3403386,9.6796773 12.9357002,7.8341554 14.8237305,6.18212891 C16.7117608,4.53010242 18.5478427,3.24154108 20.3320313,2.31640625 C22.1162199,1.39127142 23.5180613,0.928710938 24.5375977,0.928710938 C25.7836977,0.928710938 26.7465787,1.32047134 27.4262696,2.10400391 C28.1059604,2.88753647 28.4458008,3.96841759 28.4458008,5.34667969 C28.4458008,6.02637059 28.3655607,6.79101138 28.2050781,7.640625 C28.0445956,8.49023862 27.8416354,9.34927951 27.5961914,10.2177734 C27.3507475,11.0862674 26.9259471,12.4833888 26.3217774,14.4091797 C25.7176077,16.3349706 25.3211273,17.6093719 25.1323242,18.2324219 C24.5470349,20.1770931 23.7776741,22.1736551 22.8242188,24.222168 C21.8707635,26.2706808 20.5161221,28.9846836 18.7602539,32.3642578 L24.5375977,29.2490234 L24.5375977,31.0898438 Z M53.9057617,29.8154297 C53.4337542,28.9469358 52.7257534,28.163415 51.7817383,27.4648438 C50.8377232,26.7662725 49.7757221,26.204592 48.5957031,25.7797852 C47.4156842,25.3549783 46.1837629,25.038738 44.8999024,24.8310547 C41.0860812,24.2646456 37.5271975,23.0280043 34.2231446,21.1210938 C33.93994,20.9700513 33.6378597,20.649091 33.3168946,20.1582031 C32.9959294,19.6673153 32.8354492,19.1953148 32.8354492,18.7421875 C32.8354492,17.0807209 33.1139295,15.4145591 33.6708985,13.7436523 C34.2278674,12.0727456 34.9405881,10.7653042 35.8090821,9.82128906 C37.2062245,8.25422394 39.7219871,6.88542252 43.3564453,5.71484375 C46.9909036,4.54426498 51.0831478,3.95898438 55.6333008,3.95898438 C58.3520644,3.95898438 60.4524666,4.16666459 61.9345703,4.58203125 C63.4166741,4.99739791 64.1577149,5.63931857 64.1577149,6.5078125 C64.1577149,7.92383521 63.9641947,9.01887634 63.5771485,9.79296875 C63.1901023,10.5670612 62.7747418,11.0815417 62.3310547,11.3364258 C61.8873676,11.5913099 61.1085668,11.9358702 59.9946289,12.3701172 C58.8051699,12.7854838 57.7714888,13.2197243 56.8935547,13.6728516 C56.0156206,14.1259788 55.2651399,14.5602193 54.6420899,14.9755859 C54.0190399,15.3909526 53.6319995,15.5986328 53.4809571,15.5986328 C53.292154,15.5986328 53.1977539,15.5231127 53.1977539,15.3720703 C53.1977539,15.0511052 53.5328743,14.5649447 54.203125,13.9135742 C54.8733758,13.2622038 55.6993766,12.6910832 56.6811524,12.2001953 C57.719569,11.6526665 58.2387696,11.3033862 58.2387696,11.1523438 C58.2387696,10.9068998 57.662929,10.7841797 56.5112305,10.7841797 C53.0183745,10.7841797 49.7898911,11.0957 46.8256836,11.71875 C43.8614761,12.3418 41.5250737,13.1630808 39.8164063,14.1826172 C38.1077389,15.2021535 37.253418,16.2405546 37.253418,17.2978516 C37.253418,17.9586622 37.6074184,18.4259426 38.3154297,18.699707 C39.0234411,18.9734714 40.5857627,19.4313119 43.0024414,20.0732422 C45.4191202,20.7151725 47.5808824,21.4514932 49.487793,22.2822266 C52.2254369,23.4528053 54.255039,24.6705666 55.5766602,25.9355469 C56.8982814,27.2005272 57.5590821,28.6165286 57.5590821,30.1835938 C57.5590821,31.259771 57.2994818,32.3406521 56.7802735,33.4262695 C56.2610651,34.5118869 55.5011443,35.507808 54.5004883,36.4140625 C53.4998323,37.320317 52.3481511,38.0660778 51.0454102,38.6513672 C49.9314723,39.1233748 48.5296309,39.5670552 46.8398438,39.9824219 C45.1500567,40.3977885 43.3186948,40.7234689 41.3457031,40.9594727 C39.3727115,41.1954764 37.4894296,41.3134766 35.6958008,41.3134766 C32.3917478,41.3134766 29.7343851,41.0019562 27.7236328,40.3789063 C25.7128806,39.7558563 24.7075196,38.8118553 24.7075196,37.546875 C24.7075196,36.9804659 25.0473599,36.097825 25.7270508,34.8989258 C26.4067417,33.7000266 27.2091425,32.8929057 28.1342774,32.4775391 C28.9461304,32.1565739 29.7296512,31.9724937 30.4848633,31.925293 C31.2400754,31.8780922 31.6176758,31.9677723 31.6176758,32.1943359 C31.6176758,32.2509768 31.5893558,32.3076169 31.5327149,32.3642578 C31.476074,32.4208987 31.4099939,32.4680988 31.3344727,32.5058594 L31.1079102,32.6191406 C30.7303041,32.770183 30.4235038,32.8881832 30.1875,32.9731445 C29.9514962,33.0581059 29.762696,33.143066 29.6210938,33.2280273 C29.4794915,33.3129887 29.4086914,33.4309888 29.4086914,33.5820313 C29.4086914,33.9785176 31.3627734,34.1767578 35.2709961,34.1767578 C38.6694506,34.1767578 41.4542535,34.0540377 43.6254883,33.8085938 C45.7967231,33.5631498 47.7130451,33.1194694 49.3745117,32.4775391 C51.0359784,31.8356088 52.5463799,30.9482479 53.9057617,29.8154297 Z"></path>
            </g>
        </g>
    </g>
</svg>