<svg xmlns="http://www.w3.org/2000/svg" viewBox="0 0 196 191"><g fill="none" fill-rule="evenodd"><g fill="#03233F"><path fill-rule="nonzero" d="M114.882 36.237c-6.608.082-12.827.051-15.562-7.208 1.886-.462 4.06-1.155 6.29-1.463.99-.136 2.46.175 3.074.858 2.203 2.46 4.133 5.165 6.198 7.813zM112.257 132.006c-5.642 3.436-11.352 6.221-16.495-.503 7.272-4.817 10.983-4.724 16.495.503zM101.756 126.294c-2.675 1.657-4.743 2.844-6.71 4.185-1.88 1.281-3.7 1.32-5.707.338-1.533-.749-3.429-1.636-5.158-2.335 2.45-1.23 3.74-2.763 5.595-4.21.601-.47 1.593-.908 2.258-.745 3.136.768 6.225 1.748 9.722 2.767zM116.943 64.18c-1.212-1.686-2.316-3.508-3.707-5.075-1.527-1.718-2.417-3.547-2.316-5.872.074-1.717.014-3.44.014-5.37.606.341 1.107.589 1.576.888 2.038 1.29 5.296 1.65 5.593 4.38.354 3.259-.359 6.637-.666 9.959-.045.472-.412.916-.494 1.09zM73.711 88.936c4.585 4.455 5.834 9.548 2.512 14.748-1.222-1.31-3.355-2.392-5.08-3.494-1.221-.78-2.06-2.02-1.431-3.423 1.19-2.676 2.654-5.233 4-7.83zM107.007 37.652c1.456.079 3.086.163 4.716.258 2.32.134 3.969 1.168 4.66 3.49.778 2.626 1.567 5.253 2.293 7.685-5.97-1.776-11.276-4.23-11.67-11.433zM107.643 25.577c-2.922.642-5.143 1.316-7.412 1.562-1.46.159-3.15.037-4.45-.576-2.263-1.062-3.094-3.184-2.337-4.7 1.147-2.299 4.059-3.48 6.295-2.109 2.695 1.649 5.116 3.741 7.904 5.823zM121.029 139.323c-5.555 2.435-10.991 3.334-15.185-2.48 6.584-4.31 11.068-3.576 15.185 2.48zM109.518 74.61c-2.217-5.553-3.61-11.072 1.806-15.777.175.295.42.8.745 1.244 4.052 5.495 4.297 5.545-.797 12.503-.565.77-1.25 1.45-1.754 2.03zM75.452 122.17c4.894-2.487 10.085-4.01 14.532.499-2.603 1.645-4.216 3.322-5.83 4.01-3.325 1.419-5.99-.063-8.702-4.51zM68.62 112.16c9.052-.22 7.935-.873 13.591 6.436-3.286.266-5.337 2.884-8.43.943-2.707-1.7-4.234-4.276-5.161-7.379zM76.866 111.087c-2.164-.737-4.321.033-6.213-.522-1.084-.32-2.093-1.659-2.322-2.654-.583-2.533-.554-5.505.286-7.61 5.372 2.44 8.956 4.13 8.25 10.786zM82.158 82.179c0 3.495.169 7.003-.097 10.478-.087 1.165-1.276 2.247-2.143 3.662-1.1-3.295-4.83-5.435-3.357-8.893.944-2.218 3.328-3.822 5.067-5.701.177.152.352.303.53.454zM106.065 68.288c.08 3.353 2.192 6.772-.575 10.03v-10.06c.192.009.383.02.575.03zM115.057 142.515c2.774-.26 5.644-2.255 8.68.605-3.248.901-6.003.833-8.68-.605z"/><path fill-rule="nonzero" d="M124.441 98.909c3.905 10.783 2.974 22.025 2.79 33.572 2.354-2.268 4.334-4.48 7.06-5.832 1.292-5.837-1.304-17.667-1.304-17.667 3.952 6.657 3.212 16.896 3.212 16.896-.084 6.98-2.05 12.756-7.474 16.905-3.585 2.745-7.632 3.708-12.073 2.286-.566-.181-1.158-.338-1.747-.383-4.053-.312-7.45-2.08-10.513-4.639-.563-.47-1.177-1.034-1.85-1.193-6.12-1.434-11.02-6.054-17.47-6.658-.81-.079-1.548-.869-2.337-1.296-.553-.3-1.138-.54-1.616-.766-1.057 3.04-1.762 5.986-3.076 8.63-2.24 4.502-5.974 7.145-11.17 6.914-10.263-.46-16.039-11.817-14.963-19.594-.078-1.45-.406-10.581 3.223-16.693 0 0-2.493 11.359-1.38 17.308 2.596 1.325 4.498 3.681 6.89 5.71-.357-11.605-1.109-22.779 2.76-33.612-10.922.368-34.54 17.863-36.795 28.06 1.317-.296 2.615-.65 3.932-.872 1.378-.235 2.775-.347 4.51-.555 0 1.244-.033 2.197.004 3.147.697 17.532 8.713 29.991 25.18 36.735 4.637 1.898 9.148 4.124 13.64 6.357 8.034 3.995 14.62 9.618 19.059 17.553.243.432.566.822.98 1.412.573-.846 1.062-1.484 1.461-2.173 3.773-6.539 9.01-11.631 15.642-15.125a273.086 273.086 0 0 1 17.606-8.462c13-5.697 21.111-15.205 23.39-29.375.52-3.231.697-6.518 1.072-10.156l8.308 1.428c-3.58-11.293-27.45-28.36-36.95-27.862z"/><path fill-rule="nonzero" d="M101.385 1.895C92.525-1.928 82 1.65 77.278 10.09c-4.605 8.23-2.627 18.23 4.816 24.332 1.603 1.312 2.57 5.076 1.578 6.136-.744.797-4.261.345-5.646-.724-.06-.045-.1-.124-.167-.148-.682-.258-1.362-.71-2.05-.723-3.97-.068-7.946-.107-11.91.033-.79.03-1.55.881-2.327 1.348-1.012.604-1.986 1.611-3.056 1.725-3.643.386-7.321.516-10.989.62-2.133.06-3.132.878-3.087 3.127.091 4.575.07 9.153.002 13.73-.028 2.086.843 2.965 2.922 3.058 3.965.173 7.93.444 11.88.831.81.081 1.556.844 2.33 1.294.882.51 1.748 1.416 2.654 1.457 3.664.17 7.34.083 11.012.058.583-.004 1.387.033 1.71-.308.728-.765 1.488-1.118 2.267-1.256 0 0 1.498-5.609 1.498-11.186 0 0 .505 5.893.318 11.161 1.154.113 2.318.363 3.447.163.087.654.171.953.159 1.246-.565 15.72-1.076 31.443-1.779 47.158-.105 2.35.806 3.514 2.704 4.254 4.158 1.618 8.345 3.153 12.504 4.771 1.04.404 1.998 1.017 3.014 1.49 1.647.763 3.308 1.49 5.247 2.356-2.675-20.512-3.143-40.709-3.149-60.54 1.22-.801 2.366-1.123 2.625-1.794 1.393-3.559 3.596-6.976 2.436-11.123-.196-.704-.177-1.5-.11-2.241.363-3.964-1.129-7.138-3.98-9.79-.227-.21-.353-.709-.285-1.02.334-1.509-.587-2.283-1.545-3.195-1.24-1.182-2.452-2.461-3.384-3.891-1.961-3.007-4.649-4.932-7.929-6.246-2.92-1.17-4.577-4.07-4.37-7.191.191-2.883 2.202-5.505 4.91-6.405 2.94-.976 6.472-.198 7.997 2.451 1.383 2.404 3.425 3.81 5.446 5.433 1.44 1.16 2.628 2.645 3.88 4.026.742.815 1.393 1.71 2.312 2.852.476-1.146.744-1.674.921-2.231 2.976-9.329-1.652-19.378-10.719-23.292zM143.38 45.778c.031-2.078-.824-3.015-2.899-3.08-3.59-.116-7.173-.378-10.762-.508-1.6-.06-2.887-.386-3.648-2.035-.251-.545-1.11-1.083-1.735-1.135-1.836-.148-3.692-.054-5.38-.054 1.772 9.183 2.963 18.134-.39 27.504 2.9-.999 6.395 1.568 8.243-2.52.045-.1.15-.183.286-.25.423-1.844 1.261-6.035 1.261-10.21 0 0 .427 4.994.35 9.897 3.852-.3 7.71-.555 11.569-.799 2.483-.156 3.066-.689 3.079-3.09.02-4.575-.044-9.148.026-13.72z"/><path d="M95.859 3.113c7.243 0 13.117 5.882 13.117 13.137 0 3.025-1.03 5.803-2.746 8.023 3.1-2.402 5.108-6.155 5.108-10.387 0-7.257-5.875-13.138-13.12-13.138-4.224 0-7.972 2.008-10.371 5.115a13.04 13.04 0 0 1 8.012-2.75z"/></g><text fill="#F5F0E6" font-family="Phosphate-Inline, Phosphate" font-size="36" transform="rotate(-10 98.5 115.853)"><tspan x="2.522" y="99.778">Anchorific</tspan></text><text fill="#F5F0E6" font-family="Futura-Bold, Futura" font-size="11" font-weight="bold" transform="rotate(-10 89.136 89.818)"><tspan x="37.329" y="66.743">A JQUERY PLUGIN</tspan></text><text fill="#F5F0E6" font-family="BrushScriptMT, Brush Script MT" font-size="58" transform="rotate(-10 99.5 158.575)"><tspan x="72.391" y="146">JS</tspan></text></g></svg>