<?xml version="1.0" encoding="UTF-8"?>
<svg width="196px" height="191px" viewBox="0 0 196 191" version="1.1" xmlns="http://www.w3.org/2000/svg" xmlns:xlink="http://www.w3.org/1999/xlink">
    <!-- Generator: Sketch 48.2 (47327) - http://www.bohemiancoding.com/sketch -->
    <title>Logo</title>
    <desc>Created with Sketch.</desc>
    <defs></defs>
    <g id="Page-1" stroke="none" stroke-width="1" fill="none" fill-rule="evenodd">
        <g id="Logo" transform="translate(-5.000000, 0.000000)">
            <g id="noun_Anchor_65037-Copy" transform="translate(31.000000, 0.000000)" fill="#03233F">
                <g id="Group">
                    <path d="M88.8821818,36.2365874 C82.2738182,36.3191241 76.0549091,36.2881729 73.3204848,29.0290703 C75.2059394,28.5668648 77.3798788,27.8735565 79.6094545,27.5661073 C80.6006061,27.4299217 82.0698182,27.7414978 82.6838788,28.4244889 C84.8866667,30.8840825 86.8174545,33.5892228 88.8821818,36.2365874 Z" id="Shape" fill-rule="nonzero"></path>
                    <path d="M86.2569697,132.005982 C80.6150303,135.441572 74.9050909,138.227185 69.7618182,131.502508 C77.033697,126.686491 80.7448485,126.779345 86.2569697,132.005982 Z" id="Shape" fill-rule="nonzero"></path>
                    <path d="M75.7561212,126.294442 C73.0814545,127.951366 71.0126061,129.137831 69.0467879,130.479053 C67.1654545,131.760435 65.3459394,131.79964 63.3389091,130.817453 C61.8058182,130.068433 59.9100606,129.181163 58.1812121,128.481665 C60.6312727,127.251868 61.9212121,125.718749 63.7757576,124.272293 C64.3774545,123.801834 65.3686061,123.364389 66.0341818,123.527399 C69.1704242,124.294991 72.2592727,125.275114 75.7561212,126.294442 Z" id="Shape" fill-rule="nonzero"></path>
                    <path d="M90.9427879,64.1793865 C89.7311515,62.4935745 88.6266667,60.6715769 87.2357576,59.105443 C85.7088485,57.3866163 84.8186667,55.5584284 84.9196364,53.232957 C84.9938182,51.5161936 84.9340606,49.7932401 84.9340606,47.8639447 C85.5398788,48.2044086 86.0406061,48.4520187 86.5104242,48.7512143 C88.5483636,50.0408502 91.8061818,50.4019482 92.1029091,53.1318495 C92.4573333,56.3899857 91.7443636,59.7678 91.4373333,63.0899021 C91.392,63.5624247 91.0252121,64.0060595 90.9427879,64.1793865 Z" id="Shape" fill-rule="nonzero"></path>
                    <path d="M47.7112727,88.9362691 C52.2961212,93.3911874 53.5448485,98.4837016 50.2231515,103.683514 C49.0012121,102.373244 46.8684848,101.292013 45.1437576,100.190148 C43.9218182,99.4101761 43.0831515,98.1700622 43.7116364,96.7669383 C44.9026667,94.0906859 46.365697,91.5341117 47.7112727,88.9362691 Z" id="Shape" fill-rule="nonzero"></path>
                    <path d="M81.0065455,37.6520918 C82.4633939,37.7305016 84.0933333,37.8151018 85.7232727,37.910019 C88.0435152,38.0441411 89.692,39.0779132 90.382303,41.3992579 C91.1612121,44.0259883 91.9504242,46.6527187 92.6757576,49.0854879 C86.7061818,47.3088855 81.4001212,44.8554821 81.0065455,37.6520918 Z" id="Shape" fill-rule="nonzero"></path>
                    <path d="M81.6432727,25.5769729 C78.7213333,26.2186957 76.5,26.8934332 74.2312727,27.1389799 C72.770303,27.297863 71.0806061,27.1761214 69.7803636,26.5632864 C67.5178182,25.5006264 66.6873939,23.3794333 67.4436364,21.8628215 C68.5913939,19.5641744 71.5030303,18.3838996 73.7387879,19.7540088 C76.4340606,21.4026794 78.8552727,23.4949847 81.6432727,25.5769729 Z" id="Shape" fill-rule="nonzero"></path>
                    <path d="M95.0289697,139.32286 C89.4735758,141.757692 84.037697,142.657342 79.8443636,136.842632 C86.428,132.532153 90.9118788,133.26673 95.0289697,139.32286 Z" id="Shape" fill-rule="nonzero"></path>
                    <path d="M83.5184242,74.6099617 C81.3012121,69.0573054 79.9082424,63.5376637 85.3235152,58.8330719 C85.4986667,59.1281406 85.7438788,59.6336779 86.0694545,60.0773126 C90.1206061,65.5721933 90.3658182,65.6217153 85.272,72.579559 C84.7073939,73.3492137 84.0212121,74.0301414 83.5184242,74.6099617 Z" id="Shape" fill-rule="nonzero"></path>
                    <path d="M49.4524848,122.169671 C54.3464242,119.683253 59.5370909,118.16045 63.9838788,122.669018 C61.3813333,124.313561 59.7678788,125.99112 58.1544242,126.678238 C54.8286061,128.097869 52.1642424,126.616335 49.4524848,122.169671 Z" id="Shape" fill-rule="nonzero"></path>
                    <path d="M42.6195152,112.160032 C51.6717576,111.939247 50.5549091,111.287207 56.2112727,118.595832 C52.9246061,118.862012 50.874303,121.480489 47.7813333,119.538813 C45.073697,117.838557 43.5467879,115.263412 42.6195152,112.160032 Z" id="Shape" fill-rule="nonzero"></path>
                    <path d="M50.8660606,111.087055 C48.7024242,110.350415 46.5449697,111.12007 44.6533333,110.565011 C43.5694545,110.245181 42.5597576,108.906023 42.3310303,107.911456 C41.7478788,105.377579 41.7767273,102.406258 42.6174545,100.301572 C47.9894545,102.740532 51.5728485,104.430471 50.8660606,111.087055 Z" id="Shape" fill-rule="nonzero"></path>
                    <path d="M56.157697,82.1785769 C56.157697,85.6740061 56.3266667,89.1818158 56.0608485,92.6566108 C55.974303,93.8224416 54.7853333,94.9036724 53.9178182,96.3191767 C52.8174545,93.0238991 49.0877576,90.8841352 50.5610909,87.4258475 C51.5048485,85.2076738 53.8889697,83.6043984 55.6281212,81.7246251 C55.8053333,81.877318 55.9804848,82.0279475 56.157697,82.1785769 Z" id="Shape" fill-rule="nonzero"></path>
                    <path d="M80.0648485,68.2876507 C80.1452121,71.640704 82.2573333,75.0597867 79.4899394,78.3179229 C79.4899394,74.9648695 79.4899394,71.6118162 79.4899394,68.2587628 C79.6815758,68.2670165 79.8732121,68.2773336 80.0648485,68.2876507 Z" id="Shape" fill-rule="nonzero"></path>
                    <path d="M89.0573333,142.514967 C91.8309091,142.254976 94.7013333,140.259651 97.7366061,143.119548 C94.4890909,144.021261 91.7340606,143.953169 89.0573333,142.514967 Z" id="Shape" fill-rule="nonzero"></path>
                    <path d="M98.4413333,98.9087656 C102.346182,109.692185 101.414788,120.933683 101.231394,132.480568 C103.584606,130.212872 105.564848,128.000888 108.29103,126.64935 C109.58303,120.811942 106.986667,108.98237 106.986667,108.98237 C110.938909,115.638954 110.199152,125.877632 110.199152,125.877632 C110.114667,132.858173 108.148848,138.633678 102.725333,142.783211 C99.1398788,145.527556 95.0928485,146.491172 90.6522424,145.069477 C90.0855758,144.887897 89.4941818,144.731077 88.9048485,144.685682 C84.8516364,144.374106 81.4557576,142.605757 78.3916364,140.047119 C77.8290909,139.57666 77.2150303,139.013347 76.5412121,138.854464 C70.4212121,137.420389 65.5210909,132.800397 59.0713939,132.195816 C58.2615758,132.117406 57.5238788,131.327117 56.7346667,130.89999 C56.1824242,130.600794 55.5972121,130.359374 55.1191515,130.134462 C54.0620606,133.173876 53.3573333,136.120436 52.0426667,138.763674 C49.8027879,143.266051 46.0689697,145.909288 40.8721212,145.678186 C30.610303,145.218043 24.8344242,133.860994 25.9100606,126.083973 C25.8317576,124.633391 25.5041212,115.502769 29.1328485,109.390926 C29.1328485,109.390926 26.6395152,120.750039 27.7522424,126.698872 C30.3486061,128.023586 32.2505455,130.380009 34.6429091,132.408348 C34.2864242,120.803688 33.534303,109.630283 37.4020606,98.7973411 C26.4808485,99.1646294 2.86218182,116.660346 0.607878788,126.857755 C1.92460606,126.560623 3.22278788,126.207778 4.53951515,125.984929 C5.91806061,125.7497 7.31515152,125.638275 9.05018182,125.42987 C9.05018182,126.674111 9.01721212,127.62741 9.05430303,128.576582 C9.75078788,146.10944 17.7665455,158.568354 34.2349091,165.311603 C38.8712727,167.209947 43.3819394,169.436374 47.8740606,171.668992 C55.9083636,175.663768 62.4940606,181.28658 66.9326061,189.222484 C67.1757576,189.653738 67.4992727,190.043724 67.9134545,190.633862 C68.486303,189.78786 68.9746667,189.150264 69.3744242,188.461083 C73.1473939,181.922113 78.3833939,176.829599 85.0164848,173.336233 C90.7758788,170.305073 96.6589091,167.486445 102.622303,164.874158 C115.622667,159.177063 123.733212,149.668835 126.012242,135.499347 C126.531515,132.268036 126.708727,128.981012 127.083758,125.343207 C129.882061,125.823983 132.628848,126.296505 135.392121,126.771091 C131.812848,115.478008 107.942788,98.411482 98.4413333,98.9087656 Z" id="Shape" fill-rule="nonzero"></path>
                    <path d="M75.3852121,1.89513079 C66.5246061,-1.92838174 55.9990303,1.64958412 51.2781818,10.0889615 C46.6727273,18.3199337 48.6509091,28.3192547 56.0938182,34.4207801 C57.6969697,35.7331136 58.6633939,39.496787 57.6722424,40.5573836 C56.9283636,41.3538627 53.4109091,40.9019743 52.0261818,39.833124 C51.9664242,39.7877288 51.9252121,39.709319 51.8592727,39.684558 C51.1772121,39.4266308 50.4972121,38.9747424 49.8089697,38.9623619 C45.8381818,38.8942691 41.8632727,38.8550642 37.8986667,38.9953765 C37.1094545,39.0242644 36.3490909,39.8764558 35.5722424,40.3427881 C34.5604848,40.9473695 33.5858182,41.9543172 32.5163636,42.0678051 C28.8732121,42.4536642 25.1950303,42.5836595 21.5271515,42.6888938 C19.3944242,42.7487329 18.3950303,43.5658462 18.4403636,45.8149712 C18.5310303,50.3895677 18.5104242,54.968291 18.4424242,59.5449509 C18.4135758,61.631066 19.2852121,62.5100818 21.3643636,62.6029356 C25.3289697,62.7762627 29.2935758,63.0465703 33.2437576,63.4344928 C34.0535758,63.5149661 34.7995152,64.2784306 35.574303,64.7282556 C36.4562424,65.2379197 37.321697,66.1437599 38.2283636,66.1850283 C41.8921212,66.3542285 45.5682424,66.267565 49.2402424,66.242804 C49.8233939,66.2386771 50.6270303,66.2758187 50.9505455,65.9353548 C51.6779394,65.1698269 52.438303,64.8169825 53.2172121,64.6787335 C53.2172121,64.6787335 54.7152727,59.0703649 54.7152727,53.4929476 C54.7152727,53.4929476 55.2201212,59.3860678 55.0326061,64.6539725 C56.1865455,64.7674605 57.3507879,65.017134 58.48,64.8169825 C58.5665455,65.4710858 58.6510303,65.7702814 58.6386667,66.0632867 C58.0740606,81.7824008 57.5630303,97.5056418 56.8603636,113.220629 C56.7552727,115.570862 57.6660606,116.734629 59.5638788,117.475396 C63.7221818,119.093115 67.9093333,120.628298 72.0676364,122.246017 C73.1082424,122.650447 74.0664242,123.263282 75.082303,123.735804 C76.7287273,124.499269 78.3895758,125.225592 80.3286061,126.092227 C77.6539394,105.579794 77.1861818,85.3830642 77.18,65.5515591 C78.3998788,64.7509532 79.5455758,64.42906 79.8052121,63.7584494 C81.1981818,60.1990543 83.4009697,56.782035 82.2408485,52.6345659 C82.0450909,51.9309405 82.0636364,51.1344614 82.1316364,50.3936945 C82.494303,46.4298696 81.0024242,43.2563336 78.1505455,40.6048422 C77.9238788,40.3943736 77.7981818,39.8950266 77.8661818,39.5834505 C78.2,38.0750924 77.2789091,37.3013108 76.3207273,36.3892803 C75.0802424,35.2069421 73.8686061,33.9276233 72.9372121,32.497675 C70.9755152,29.4912758 68.2884848,27.5661073 65.008,26.2517104 C62.0881212,25.0817527 60.4313939,22.1826512 60.6374545,19.0607006 C60.8290909,16.1781064 62.8402424,13.5555028 65.5478788,12.6558528 C68.4883636,11.6798563 72.0202424,12.4577647 73.5450909,15.1071927 C74.9277576,17.5110741 76.9698182,18.9162613 78.9912727,20.5401709 C80.4316364,21.6998115 81.6185455,23.185472 82.8713939,24.5658983 C83.6132121,25.3809482 84.2643636,26.2764714 85.1833939,27.4175412 C85.6593939,26.2723445 85.9272727,25.7441097 86.1044848,25.186987 C89.08,15.8582767 84.4518788,5.8094337 75.3852121,1.89513079 Z" id="Shape" fill-rule="nonzero"></path>
                    <path d="M117.380364,45.7778297 C117.411273,43.6999683 116.556121,42.7631768 114.481091,42.6971475 C110.891515,42.5815961 107.308121,42.3195421 103.718545,42.1895468 C102.119515,42.1297077 100.831636,41.8036877 100.071273,40.1550172 C99.8198788,39.6102749 98.9606061,39.071723 98.3362424,39.0201376 C96.5002424,38.8715715 94.6436364,38.9664887 92.956,38.9664887 C94.7281212,48.1486964 95.9191515,57.0998013 92.5665455,66.4697799 C95.4658182,65.4710858 98.9606061,68.0379772 100.80897,63.9503472 C100.854303,63.8492397 100.959394,63.766703 101.095394,63.7006737 C101.517818,61.8559785 102.356485,57.6651776 102.356485,53.4908841 C102.356485,53.4908841 102.78303,58.4843544 102.706788,63.3870342 C106.558061,63.0878387 110.415515,62.8319749 114.27503,62.5884917 C116.758061,62.4316719 117.341212,61.8993102 117.353576,59.4974923 C117.374182,54.9228958 117.310303,50.3503628 117.380364,45.7778297 Z" id="Shape" fill-rule="nonzero"></path>
                    <path d="M69.8586667,3.11254709 C77.101697,3.11254709 82.9764848,8.99535024 82.9764848,16.250326 C82.9764848,19.275296 81.9461818,22.0526559 80.229697,24.272893 C83.3309091,21.8710751 85.3379394,18.1177188 85.3379394,13.8856496 C85.3379394,6.62861042 79.4631515,0.747870691 72.2180606,0.747870691 C67.9938182,0.747870691 64.2455758,2.75557587 61.8470303,5.86308255 C64.0642424,4.14631923 66.8378182,3.11254709 69.8586667,3.11254709 Z" id="Shape"></path>
                </g>
            </g>
            <text id="Anchorific" transform="translate(101.000000, 87.277712) rotate(-10.000000) translate(-101.000000, -87.277712) " font-family="Phosphate-Inline, Phosphate" font-size="36" font-weight="normal" fill="#F5F0E6">
                <tspan x="2.522" y="99.7777122">Anchorific</tspan>
            </text>
            <text id="A-JQUERY-PLUGIN" transform="translate(91.636388, 61.242978) rotate(-10.000000) translate(-91.636388, -61.242978) " font-family="Futura-Bold, Futura" font-size="11" font-weight="bold" fill="#F5F0E6">
                <tspan x="37.329388" y="66.7429777">A JQUERY PLUGIN</tspan>
            </text>
            <text id="JS" transform="translate(102.000000, 130.000000) rotate(-10.000000) translate(-102.000000, -130.000000) " font-family="BrushScriptMT, Brush Script MT" font-size="58" font-weight="normal" fill="#F5F0E6">
                <tspan x="72.3911133" y="146">JS</tspan>
            </text>
        </g>
    </g>
</svg>